# xmcd
#
# Track frame offsets:
#  150
#  19272
#  32907
#  47770
#  67777
#  87147
#  104730
#  124442
#  146642
#  169900
#  181590
#  202767
#  223945
#
# Disc length: 3219 seconds
#
# Revision: 0
# Processed by: cddbd v1.5.1PL2 Copyright (c) Steve Scherf et al.
# Submitted via: Collectorz.com_Music_Collector 6.11
#
DISCID=ba0c910d
DTITLE=Eddie Kirkland - The Devil and Other Blues Demons
DYEAR=1995
DGENRE=Blues
TTITLE0=Devil
TTITLE1=Got to Love My Baby
TTITLE2=Snake in the Grass
TTITLE3=Mother-In-Law (With the Black Cat Bone)
TTITLE4=Hard to Raise a Family Today
TTITLE5=Spank the Butterfly
TTITLE6=Rollin' Stone Man
TTITLE7=I'm Going to Wait for You
TTITLE8=Pity on Me
TTITLE9=Georgeia Brown
TTITLE10=Burnin' Love
TTITLE11=Tell Me, Baby
TTITLE12=Mink Hollow Slide
EXTD=
EXTT0=
EXTT1=
EXTT2=
EXTT3=
EXTT4=
EXTT5=
EXTT6=
EXTT7=
EXTT8=
EXTT9=
EXTT10=
EXTT11=
EXTT12=
PLAYORDER=
